<?xml version="1.0" encoding="UTF-8" standalone="no"?>
<!DOCTYPE svg PUBLIC "-//W3C//DTD SVG 1.1//EN" "http://www.w3.org/Graphics/SVG/1.1/DTD/svg11.dtd">
<svg version="1.1" xmlns="http://www.w3.org/2000/svg" xmlns:xlink="http://www.w3.org/1999/xlink" preserveAspectRatio="xMidYMid meet" viewBox="0 0 640 640" width="640" height="640"><defs><path d="M238.39 48.08L243.5 48.27L248.54 48.52L253.51 48.85L258.42 49.25L263.25 49.72L268.01 50.25L272.68 50.85L277.27 51.51L281.76 52.23L286.17 53.01L290.47 53.85L294.67 54.75L298.77 55.7L302.75 56.71L306.62 57.77L310.37 58.89L314 60.05L317.5 61.26L320.87 62.52L324.11 63.82L327.21 65.17L330.16 66.56L332.96 67.99L335.62 69.47L338.12 70.98L340.46 72.52L342.63 74.11L344.64 75.72L346.48 77.37L348.14 79.05L349.62 80.76L350.91 82.5L352.02 84.26L352.94 86.05L353.66 87.86L354.17 89.69L354.49 91.55L354.59 93.42L354.49 95.3L354.17 97.15L353.66 98.99L353.61 99.12L354.71 99.35L358.66 100.24L362.51 101.2L366.25 102.21L369.88 103.27L373.41 104.38L376.82 105.54L380.11 106.76L383.27 108.01L386.31 109.32L389.22 110.67L392 112.06L394.63 113.49L397.13 114.96L399.48 116.47L401.67 118.02L403.72 119.6L405.6 121.22L407.33 122.87L408.89 124.55L410.28 126.25L411.5 127.99L412.54 129.75L413.4 131.54L414.07 133.36L414.56 135.19L414.86 137.04L414.95 138.92L414.86 140.79L414.56 142.65L414.07 144.48L413.4 146.29L412.54 148.08L411.5 149.85L410.28 151.58L408.89 153.29L407.33 154.97L405.6 156.62L403.72 158.24L401.67 159.82L400.39 160.72L400.76 160.92L402.89 162.17L404.93 163.47L406.87 164.8L408.7 166.17L410.43 167.58L412.04 169.02L413.54 170.49L414.93 171.99L416.2 173.53L417.34 175.09L418.37 176.68L419.26 178.3L420.03 179.94L420.66 181.6L421.15 183.29L421.51 185L421.73 186.72L421.8 188.47L421.73 190.21L421.51 191.94L421.15 193.65L420.66 195.33L420.03 197L419.26 198.64L418.37 200.26L417.34 201.85L416.2 203.41L414.93 204.94L413.54 206.45L412.04 207.92L410.43 209.36L408.7 210.77L406.87 212.14L404.93 213.47L402.89 214.76L400.76 216.02L398.52 217.23L396.19 218.4L393.78 219.53L391.27 220.61L388.68 221.65L386.01 222.64L383.26 223.58L380.43 224.46L377.53 225.3L374.56 226.08L371.52 226.81L368.42 227.48L365.25 228.1L362.02 228.65L358.74 229.15L355.4 229.58L352.02 229.95L348.58 230.26L345.1 230.5L341.58 230.67L338.01 230.78L334.41 230.81L330.81 230.78L327.25 230.67L323.73 230.5L320.25 230.26L316.81 229.95L313.42 229.58L310.09 229.15L306.81 228.65L303.58 228.1L300.41 227.48L297.31 226.81L294.27 226.08L291.3 225.3L288.4 224.46L285.57 223.58L282.82 222.64L280.15 221.65L277.56 220.61L275.05 219.53L272.63 218.4L270.31 217.23L268.07 216.02L265.94 214.76L263.9 213.47L261.96 212.14L260.13 210.77L258.4 209.36L256.79 207.92L255.29 206.45L253.9 204.94L252.63 203.41L251.49 201.85L250.46 200.26L249.57 198.64L248.8 197L248.17 195.33L247.68 193.65L247.32 191.94L247.1 190.21L247.03 188.47L247.1 186.72L247.32 185L247.68 183.29L248.17 181.6L248.54 180.63L245.54 180.12L241.41 179.33L237.36 178.49L233.41 177.59L229.57 176.64L225.82 175.63L222.19 174.57L218.66 173.46L215.25 172.29L211.96 171.08L208.8 169.82L205.76 168.52L202.85 167.17L200.07 165.78L197.44 164.35L194.94 162.88L192.6 161.37L190.4 159.82L188.35 158.24L186.47 156.62L184.74 154.97L183.18 153.29L181.79 151.58L180.58 149.85L179.53 148.08L178.67 146.29L178 144.48L177.51 142.65L177.22 140.79L177.12 138.92L177.22 137.04L177.51 135.19L177.52 135.14L174.27 134.62L169.87 133.84L165.57 133L161.36 132.1L157.27 131.14L153.28 130.14L149.41 129.07L145.66 127.96L142.03 126.8L138.53 125.59L135.16 124.33L131.93 123.02L128.83 121.68L125.88 120.29L123.07 118.85L120.42 117.38L117.92 115.87L115.58 114.32L113.4 112.74L111.4 111.13L109.56 109.48L107.9 107.8L106.42 106.09L105.12 104.35L104.01 102.59L103.1 100.8L102.38 98.99L101.86 97.15L101.55 95.3L101.44 93.42L101.55 91.55L101.86 89.69L102.38 87.86L103.1 86.05L104.01 84.26L105.12 82.5L106.42 80.76L107.9 79.05L109.56 77.37L111.4 75.72L113.4 74.11L115.58 72.52L117.92 70.98L120.42 69.47L123.07 67.99L125.88 66.56L128.83 65.17L131.93 63.82L135.16 62.52L138.53 61.26L142.03 60.05L145.66 58.89L149.41 57.77L153.28 56.71L157.27 55.7L161.36 54.75L165.57 53.85L169.87 53.01L174.27 52.23L178.77 51.51L183.36 50.85L188.03 50.25L192.78 49.72L197.62 49.25L202.52 48.85L207.5 48.52L212.54 48.27L217.64 48.08L222.8 47.97L228.02 47.93L233.23 47.97L238.39 48.08Z" id="d4xmoZ44H3"></path><path d="M421.8 250.34L614.59 563.86L421.8 563.86L421.8 250.34Z" id="b6czZyhLSD"></path><path d="M247.03 250.34L54.23 563.86L247.03 563.86L247.03 250.34Z" id="b1ugnX2B72"></path><path d="M247.03 250.34L421.8 250.34L421.8 563.86L247.03 563.86L247.03 250.34Z" id="h6KFYGe3W8"></path><path d="M263.24 355.75L274.05 355.75L288.47 355.75L302.88 355.75L292.07 355.75L304.68 355.75L292.97 355.75" id="e103KDsaWm"></path><path d="M385.86 355.75L375.05 355.75L360.63 355.75L346.22 355.75L357.03 355.75L344.41 355.75L356.13 355.75" id="d3XVXyQRQA"></path><path d="M354.59 385.93C354.59 404.08 341.27 418.81 324.86 418.81C308.46 418.81 295.14 404.08 295.14 385.93C295.14 367.78 308.46 353.05 324.86 353.05C341.27 353.05 354.59 367.78 354.59 385.93Z" id="a55jAFc7ef"></path><path d="M283.96 362.05L377.66 362.05L377.66 385.93L283.96 385.93L283.96 362.05Z" id="b6Yr6JP8s"></path><path d="M353.02 379.62C353.02 397.77 340.4 412.51 324.86 412.51C309.33 412.51 296.71 397.77 296.71 379.62C296.71 361.48 309.33 346.74 324.86 346.74C340.4 346.74 353.02 361.48 353.02 379.62Z" id="a7wtjCdLN"></path><path d="M390.65 156.62C390.65 173.02 363.84 186.33 330.81 186.33C297.78 186.33 270.97 173.02 270.97 156.62C270.97 140.22 297.78 126.9 330.81 126.9C363.84 126.9 390.65 140.22 390.65 156.62Z" id="b2o1mZmwsI"></path><path d="M395.39 183.43C395.39 196.89 372.93 207.82 345.26 207.82C317.6 207.82 295.14 196.89 295.14 183.43C295.14 169.96 317.6 159.03 345.26 159.03C372.93 159.03 395.39 169.96 395.39 183.43Z" id="c3idZgDoc"></path><path d="M350.75 129.56C350.75 148.6 316.79 164.06 274.95 164.06C233.12 164.06 199.15 148.6 199.15 129.56C199.15 110.52 233.12 95.06 274.95 95.06C316.79 95.06 350.75 110.52 350.75 129.56Z" id="dapHNwZk"></path><path d="M390.65 178.11C390.65 188.64 373.23 197.18 351.78 197.18C330.32 197.18 312.9 188.64 312.9 178.11C312.9 167.58 330.32 159.03 351.78 159.03C373.23 159.03 390.65 167.58 390.65 178.11Z" id="f1dwS3LXZw"></path><path d="M338.23 139.37C338.23 149.9 320.81 158.45 299.35 158.45C277.9 158.45 260.48 149.9 260.48 139.37C260.48 128.84 277.9 120.29 299.35 120.29C320.81 120.29 338.23 128.84 338.23 139.37Z" id="a2wk7uoVGw"></path><path d="M371.78 156.47C371.78 165.91 356.75 173.57 338.23 173.57C319.72 173.57 304.68 165.91 304.68 156.47C304.68 147.03 319.72 139.37 338.23 139.37C356.75 139.37 371.78 147.03 371.78 156.47Z" id="bshUAO4bA"></path></defs><g><g><g><use xlink:href="#d4xmoZ44H3" opacity="1" fill="#dbdbda" fill-opacity="1"></use></g><g><use xlink:href="#b6czZyhLSD" opacity="1" fill="#68646b" fill-opacity="1"></use><g><use xlink:href="#b6czZyhLSD" opacity="1" fill-opacity="0" stroke="#68646b" stroke-width="1" stroke-opacity="1"></use></g></g><g><use xlink:href="#b1ugnX2B72" opacity="1" fill="#68646b" fill-opacity="1"></use><g><use xlink:href="#b1ugnX2B72" opacity="1" fill-opacity="0" stroke="#68646b" stroke-width="1" stroke-opacity="1"></use></g></g><g><use xlink:href="#h6KFYGe3W8" opacity="1" fill="#68646b" fill-opacity="1"></use><g><use xlink:href="#h6KFYGe3W8" opacity="1" fill-opacity="0" stroke="#68646b" stroke-width="1" stroke-opacity="1"></use></g></g><g><g><use xlink:href="#e103KDsaWm" opacity="1" fill-opacity="0" stroke="#262626" stroke-width="3" stroke-opacity="1"></use></g></g><g><use xlink:href="#d3XVXyQRQA" opacity="1" fill="#f8d2b1" fill-opacity="1"></use><g><use xlink:href="#d3XVXyQRQA" opacity="1" fill-opacity="0" stroke="#262626" stroke-width="3" stroke-opacity="1"></use></g></g><g><use xlink:href="#a55jAFc7ef" opacity="1" fill="#262626" fill-opacity="1"></use></g><g><use xlink:href="#b6Yr6JP8s" opacity="1" fill="#68646b" fill-opacity="1"></use></g><g><use xlink:href="#a7wtjCdLN" opacity="1" fill="#68646b" fill-opacity="1"></use></g><g><use xlink:href="#b2o1mZmwsI" opacity="1" fill="#e6e6e6" fill-opacity="1"></use></g><g><use xlink:href="#c3idZgDoc" opacity="1" fill="#e6e6e6" fill-opacity="1"></use></g><g><use xlink:href="#dapHNwZk" opacity="1" fill="#e6e6e6" fill-opacity="1"></use></g><g><use xlink:href="#f1dwS3LXZw" opacity="1" fill="#f3f3f3" fill-opacity="1"></use></g><g><use xlink:href="#a2wk7uoVGw" opacity="1" fill="#f3f3f3" fill-opacity="1"></use></g><g><use xlink:href="#bshUAO4bA" opacity="1" fill="#f3f3f3" fill-opacity="1"></use></g></g></g></svg>