<?xml version="1.0" encoding="utf-8"?>
<!-- Generator: Adobe Illustrator 21.0.2, SVG Export Plug-In . SVG Version: 6.00 Build 0)  -->
<svg version="1.1" id="Слой_1" xmlns="http://www.w3.org/2000/svg" xmlns:xlink="http://www.w3.org/1999/xlink" x="0px" y="0px"
	 viewBox="0 0 640 640" style="enable-background:new 0 0 640 640;" xml:space="preserve">
<style type="text/css">
	.st0{fill:#DBDBDA;}
	.st1{fill:#68646B;}
	.st2{fill-opacity:0;stroke:#262626;stroke-width:3;}
	.st3{fill:#F8D2B1;}
	.st4{fill:#262626;}
	.st5{fill:#E6E6E6;}
	.st6{fill:#F3F3F3;}
</style>
<g>
	<g>
		<g>
			<g>
				<path id="d4xmoZ44H3" class="st0" d="M239.4,48.1l5.1,0.2l5,0.3l5,0.3l4.9,0.4l4.8,0.5l4.8,0.5l4.7,0.6l4.6,0.7l4.5,0.7l4.4,0.8
					l4.3,0.8l4.2,0.9l4.1,1l4,1l3.9,1.1l3.8,1.1l3.5,1l3.5,1.2l3.4,1.3l3.2,1.3l3.1,1.3l3,1.4L334,68l2.7,1.5l2.5,1.5l2.3,1.5
					l2.2,1.6l2,1.6l1.8,1.7l1.7,1.7l1.5,1.7l1.3,1.7l1.1,1.8l0.9,1.8l0.7,1.8l0.5,1.8l0.3,1.9l0.1,1.9l-0.1,1.9l-0.3,1.8l-0.5,1.8
					l-0.1,0.1l1.1,0.2l4,0.9l3.9,1l3.7,1l3.6,1.1l3.5,1.1l3.4,1.2l3.3,1.2l3.2,1.3l3,1.3l2.9,1.3l2.8,1.4l2.6,1.4l2.5,1.5l2.4,1.5
					l2.2,1.5l2,1.6l1.9,1.6l1.7,1.7l1.6,1.7l1.4,1.7l1.2,1.7l1,1.8l0.9,1.8l0.7,1.8l0.5,1.8l0.3,1.8l0.1,1.9l-0.1,1.9l-0.3,1.9
					l-0.5,1.8l-0.7,1.8l-0.9,1.8l-1,1.8l-1.2,1.7l-1.4,1.7l-1.6,1.7l-1.7,1.6l-1.9,1.6l-2,1.6l-1.3,0.9l0.4,0.2l2.1,1.3l2,1.3
					l1.9,1.3l1.8,1.4l1.7,1.4l1.6,1.4l1.5,1.5l1.4,1.5l1.3,1.5l1.1,1.6l1,1.6l0.9,1.6l0.8,1.6l0.6,1.7l0.5,1.7l0.4,1.7l0.2,1.7
					l0.1,1.8l-0.1,1.7l-0.2,1.7l-0.4,1.7l-0.5,1.7L421,197l-0.8,1.6l-0.9,1.6l-1,1.6l-1.1,1.6l-1.3,1.5l-1.4,1.5l-1.5,1.5l-1.6,1.4
					l-1.7,1.4l-1.8,1.4l-1.9,1.3l-2,1.3l-2.1,1.3l-2.2,1.2l-2.3,1.2l-2.4,1.1l-2.5,1.1l-2.6,1l-2.7,1l-2.8,0.9l-2.8,0.9l-2.9,0.8
					l-3,0.8l-3,0.7l-3.1,0.7l-3.2,0.6l-3.2,0.5l-3.3,0.5l-3.3,0.4l-3.4,0.4l-3.4,0.3l-3.5,0.2l-3.5,0.2l-3.6,0.1h-3.6H332l-3.6-0.1
					l-3.5-0.2l-3.5-0.2l-3.4-0.3l-3.4-0.4l-3.3-0.4l-3.3-0.5l-3.2-0.5l-3.2-0.6l-3.1-0.7l-3-0.7l-3-0.8l-2.9-0.8l-2.8-0.9l-2.8-0.9
					l-2.7-1l-2.6-1l-2.5-1.1l-2.4-1.1l-2.3-1.2l-2.2-1.2l-2.1-1.3l-2-1.3l-1.9-1.3l-1.8-1.4l-1.7-1.4l-1.6-1.4l-1.5-1.5l-1.4-1.5
					l-1.3-1.5l-1.1-1.6l-1-1.6l-0.9-1.6l-0.8-1.6l-0.6-1.7l-0.5-1.7l-0.4-1.7l-0.2-1.7l-0.1-1.7l0.1-1.8l0.2-1.7l0.4-1.7l0.5-1.7
					l0.4-1l-3-0.5l-4.1-0.8l-4.1-0.8l-3.9-0.9l-3.8-0.9l-3.8-1l-3.6-1.1l-3.5-1.1l-3.4-1.2l-3.3-1.2l-3.2-1.3l-3-1.3l-2.9-1.4
					l-2.8-1.4l-2.6-1.4l-2.5-1.5l-2.3-1.5l-2.2-1.5l-2-1.6l-1.9-1.6l-1.7-1.6l-1.6-1.7l-1.4-1.7l-1.2-1.7l-1.1-1.8l-0.9-1.8
					l-0.7-1.8l-0.5-1.8l-0.3-1.9l-0.1-1.9l0.1-1.9l0.3-1.8v-0.1l-3.3-0.5l-4.4-0.8L167,133l-4.2-0.9l-4.1-1l-4-1l-3.9-1.1l-3.8-1.1
					l-3.6-1.2l-3.5-1.2l-3.4-1.3l-3.2-1.3l-3.1-1.3l-3-1.4l-2.8-1.4l-2.7-1.5l-2.5-1.5l-2.3-1.6l-2.2-1.6l-2-1.6l-1.8-1.6l-1.7-1.7
					l-1.5-1.7l-1.3-1.7l-1.1-1.8l-0.9-1.8l-0.7-1.8l-0.5-1.8l-0.3-1.8l-0.1-1.9l0.1-1.9l0.3-1.9l0.5-1.8l0.7-1.8l0.9-1.8l1.1-1.8
					l1.3-1.7l1.5-1.7l1.7-1.7l1.8-1.7l2-1.6l2.2-1.6l2.3-1.5l2.5-1.5l2.7-1.5l2.8-1.4l3-1.4l3.1-1.3l3.2-1.3l3.4-1.3L143,60l3.6-1.2
					l3.8-1.1l3.9-1.1l4-1l4.1-1l4.2-0.9l4.3-0.8l4.4-0.8l4.5-0.7l4.6-0.7l4.7-0.6l4.8-0.5l4.8-0.5l4.9-0.4l5-0.3l5-0.3l5.1-0.2
					l5.2-0.1h5.2h5.2L239.4,48.1z"/>
			</g>
		</g>
		<g>
			<g>
				<path id="b6czZyhLSD" class="st1" d="M420.8,250.3l192.8,313.5H420.8V250.3z"/>
			</g>
		</g>
		<g>
			<g>
				<path id="b1ugnX2B72" class="st1" d="M250,250.3L57.2,563.9H250V250.3z"/>
			</g>
		</g>
		<g>
			<g>
				<path id="h6KFYGe3W8" class="st1" d="M248,251.5h174.8v312.4H248V251.5z"/>
			</g>
		</g>
		<g>
			<g>
				<g>
					<path id="e103KDsaWm" class="st2" d="M264.2,355.8H275h14.4h14.4H293h12.6H294"/>
				</g>
			</g>
		</g>
		<g>
			<g>
				<path id="d3XVXyQRQA" class="st3" d="M386.9,355.8H376h-14.4h-14.4H358h-12.6h11.7"/>
			</g>
			<g>
				<g>
					<path id="d3XVXyQRQA_1_" class="st2" d="M386.9,355.8H376h-14.4h-14.4H358h-12.6h11.7"/>
				</g>
			</g>
		</g>
		<g>
			<g>
				<path id="a55jAFc7ef" class="st4" d="M355.6,385.9c0,18.1-13.3,32.9-29.7,32.9c-16.4,0-29.7-14.7-29.7-32.9s13.3-32.9,29.7-32.9
					C342.3,353,355.6,367.8,355.6,385.9z"/>
			</g>
		</g>
		<g>
			<g>
				<path id="b6Yr6JP8s" class="st1" d="M285,362h93.7v23.9H285V362z"/>
			</g>
		</g>
		<g>
			<g>
				<path id="a7wtjCdLN" class="st1" d="M354,379.6c0,18.1-12.6,32.9-28.2,32.9c-15.5,0-28.1-14.7-28.1-32.9
					c0-18.1,12.6-32.9,28.1-32.9C341.4,346.7,354,361.5,354,379.6z"/>
			</g>
		</g>
		<g>
			<g>
				<path id="b2o1mZmwsI" class="st5" d="M391.6,156.6c0,16.4-26.8,29.7-59.8,29.7S272,173,272,156.6s26.8-29.7,59.8-29.7
					S391.6,140.2,391.6,156.6z"/>
			</g>
		</g>
		<g>
			<g>
				<path id="c3idZgDoc" class="st5" d="M396.4,183.4c0,13.5-22.5,24.4-50.1,24.4c-27.7,0-50.1-10.9-50.1-24.4s22.5-24.4,50.1-24.4
					S396.4,170,396.4,183.4z"/>
			</g>
		</g>
		<g>
			<g>
				<path id="dapHNwZk" class="st5" d="M351.8,129.6c0,19-34,34.5-75.8,34.5s-75.8-15.5-75.8-34.5s34-34.5,75.8-34.5
					C317.8,95.1,351.8,110.5,351.8,129.6z"/>
			</g>
		</g>
		<g>
			<g>
				<path id="f1dwS3LXZw" class="st6" d="M391.6,178.1c0,10.5-17.4,19.1-38.9,19.1s-38.9-8.5-38.9-19.1s17.4-19.1,38.9-19.1
					S391.6,167.6,391.6,178.1z"/>
			</g>
		</g>
		<g>
			<g>
				<path id="a2wk7uoVGw" class="st6" d="M339.2,139.4c0,10.5-17.4,19.1-38.9,19.1s-38.9-8.6-38.9-19.1s17.4-19.1,38.9-19.1
					C321.8,120.3,339.2,128.8,339.2,139.4z"/>
			</g>
		</g>
		<g>
			<g>
				<path id="bshUAO4bA" class="st6" d="M372.8,156.5c0,9.4-15,17.1-33.5,17.1s-33.6-7.7-33.6-17.1s15-17.1,33.6-17.1
					C357.8,139.4,372.8,147,372.8,156.5z"/>
			</g>
		</g>
	</g>
</g>
</svg>
